# xmcd CD database file
#
# Track frame offsets:
#	183
#	18570
#	35673
#
# Disc length: 767 seconds
#
# Revision: 0
# Processed by: cddbd v1.5.1PL0 Copyright (c) Steve Scherf et al.
# Submitted via: CDex 1.51
#
DISCID=1f02fd03
DTITLE=John Hiatt - Bring Back Your Love To Me (Single)
DYEAR=1990
DGENRE=Blues
TTITLE0=Bring Mack You Love To Me
TTITLE1=Ashland City
TTITLE2=Feels Like Rain
EXTD=YEAR: 1990
EXTT0=
EXTT1=
EXTT2=
PLAYORDER=
